# xmcd CD database file
#
# Track frame offsets:
#	150
#	22195
#	45343
#	68828
#	86410
#	102413
#	119178
#	138218
#	154510
#	169083
#	184850
#	207260
#
# Disc length: 3000 seconds
#
# Revision: 1
# Processed by: cddbd v1.5.2PL0 Copyright (c) Steve Scherf et al.
# Submitted via: CDex 1.51
#
DISCID=a20bb60c
DTITLE=Paul Butterfield's Better Days - Better Days
DYEAR=1973
DGENRE=Blues
TTITLE0=New Walkin' Blues
TTITLE1=Please Send Me Someone To Love
TTITLE2=Broke My Baby's Heart
TTITLE3=Done A Lot Of Wrong Things
TTITLE4=Baby Please Don't Go
TTITLE5=Buried Alive In The Blues
TTITLE6=Rule The Road
TTITLE7=Nobody's Fault But Mine
TTITLE8=Highway 28
TTITLE9=New Walkin' Blues (Single Version)
TTITLE10=Louise
TTITLE11=Keep Lovin' Me Baby
EXTD=YEAR: 1973
EXTT0=
EXTT1=
EXTT2=
EXTT3=
EXTT4=
EXTT5=
EXTT6=
EXTT7=
EXTT8=
EXTT9=
EXTT10=
EXTT11=
PLAYORDER=
